<svg xmlns="http://www.w3.org/2000/svg" viewBox="0 0 2423 740" width="2423" height="740"><title>BWL SOFT</title><defs></defs><g transform="translate(-270,-175)"><path d="M 468 245 L 720 245 A 70 70 0 0 1 790 315 L 790 392 L 774 406 L 800 428 L 800 622.3 L 735 565.2 L 735 465 A 45 45 0 0 0 690 420 L 570 420 L 570 375 L 700 375 A 37.5 37.5 0 0 0 700 300 L 530 300 L 530 560.8 L 468 615.2 Z M 340 405 L 400 440 L 400 702 L 630 500 L 860 702 L 860 440 L 920 405 L 920 700 L 835 775 L 630 595 L 425 775 L 340 700 Z M 515 736 L 585 674.5 L 585 775 L 740 775 L 819.7 845 L 515 845 Z" fill="#D08A62"/></g><path d="M160.04591104734578 -51.51219512195123Q160.04591104734578 -36.91248206599714 152.47058823529414 -25.205164992826404Q144.89526542324248 -13.497847919655669 130.571018651363 -6.7489239598278346Q116.24677187948352 0.0 97.23959827833573 0.0H20.659971305595413V-191.4490674318508H93.65853658536587Q113.21664275466286 -191.4490674318508 127.26542324246773 -184.8378766140603Q141.31420373027262 -178.22668579626975 148.47632711621236 -167.07030129124823Q155.6384505021521 -155.9139167862267 155.6384505021521 -142.14060258249643Q155.6384505021521 -125.61262553802011 146.82352941176472 -114.5939741750359Q138.00860832137735 -103.57532281205167 123.13342898134866 -98.34146341463416Q138.55954088952657 -95.58680057388811 149.30272596843616 -82.08895265423244Q160.04591104734578 -68.59110473457677 160.04591104734578 -51.51219512195123ZM52.06312769010044 -111.01291248206601H90.90387374461982Q106.32998565279772 -111.01291248206601 115.0071736011478 -118.03730272596846Q123.68436154949786 -125.06169296987089 123.68436154949786 -138.28407460545196Q123.68436154949786 -151.2309899569584 115.0071736011478 -158.53084648493547Q106.32998565279772 -165.8307030129125 90.90387374461982 -165.8307030129125H52.06312769010044ZM128.64275466284076 -54.817790530846494Q128.64275466284076 -68.86657101865137 119.00143472022957 -77.13055954088954Q109.36011477761838 -85.3945480631277 93.38307030129127 -85.3945480631277H52.06312769010044V-25.61836441893831H94.48493543758968Q110.4619799139168 -25.61836441893831 119.55236728837878 -33.331420373027264Q128.64275466284076 -41.04447632711622 128.64275466284076 -54.817790530846494Z M476.5566714490675 -191.4490674318508 419.81061692969877 0.0H384.2754662840747L344.05738880918227 -144.89526542324248L301.3601147776184 0.0L266.1004304160689 0.2754662840746055L211.83357245337163 -191.4490674318508H245.16499282639887L284.8321377331421 -35.53515064562411L327.80487804878055 -191.4490674318508H363.06456241033004L403.0071736011478 -36.361549497847925L442.9497847919656 -191.4490674318508Z M566.9096126255382 -25.342898134863706H631.6441893830704V0.0H535.5064562410331V-191.4490674318508H566.9096126255382Z  M790.8637015781925 -52.889526542324255H824.4705882352944Q825.5724533715928 -40.49354375896701 834.2496413199428 -32.505021520803446Q842.9268292682929 -24.516499282639888 858.6284074605454 -24.516499282639888Q874.8809182209471 -24.516499282639888 883.9713055954091 -32.36728837876615Q893.061692969871 -40.218077474892404 893.061692969871 -52.61406025824965Q893.061692969871 -62.25538020086084 887.4146341463417 -68.31563845050216Q881.7675753228123 -74.37589670014349 873.3658536585368 -77.68149210903874Q864.9641319942614 -80.98708751793401 850.0889526542327 -84.8436154949785Q831.3572453371595 -89.80200860832139 819.6499282639888 -94.89813486370159Q807.9426111908181 -99.9942611190818 799.6786226685799 -110.7374461979914Q791.4146341463417 -121.48063127690102 791.4146341463417 -139.38593974175038Q791.4146341463417 -155.9139167862267 799.6786226685799 -168.30989956958396Q807.9426111908181 -180.70588235294122 822.8177905308468 -187.31707317073176Q837.6929698708755 -193.92826398852227 857.2510760401724 -193.92826398852227Q885.0731707317076 -193.92826398852227 902.8407460545196 -180.0172166427547Q920.6083213773317 -166.1061692969871 922.5365853658539 -141.86513629842182H887.8278335724536Q887.0014347202298 -152.33285509325682 877.9110473457679 -159.7704447632712Q868.8206599713059 -167.20803443328555 853.9454806312772 -167.20803443328555Q840.4476327116215 -167.20803443328555 831.9081779053088 -160.32137733142042Q823.3687230989959 -153.43472022955527 823.3687230989959 -140.4878048780488Q823.3687230989959 -131.67288378766142 828.7403156384507 -126.02582496413201Q834.1119081779055 -120.37876614060261 842.3758967001437 -117.07317073170734Q850.6398852223818 -113.76757532281206 864.9641319942614 -109.91104734576759Q883.9713055954091 -104.67718794835008 895.9540889526545 -99.44332855093258Q907.9368723098999 -94.20946915351507 916.3385939741753 -83.32855093256816Q924.7403156384507 -72.44763271162124 924.7403156384507 -54.26685796269728Q924.7403156384507 -39.66714490674319 916.8895265423245 -26.72022955523673Q909.0387374461982 -13.773314203730274 894.0258249641322 -5.922525107604018Q879.0129124820662 1.9282639885222386 858.6284074605454 1.9282639885222386Q839.3457675753231 1.9282639885222386 823.9196556671452 -4.820659971305597Q808.4935437589672 -11.569583931133431 799.6786226685799 -23.965566714490677Q790.8637015781925 -36.361549497847925 790.8637015781925 -52.889526542324255Z M984.5164992826402 -96.13773314203732Q984.5164992826402 -124.23529411764707 997.601147776184 -146.5480631276901Q1010.6857962697277 -168.86083213773315 1033.136298421808 -181.39454806312773Q1055.5868005738885 -193.92826398852227 1082.307030129125 -193.92826398852227Q1109.3027259684363 -193.92826398852227 1131.7532281205167 -181.39454806312773Q1154.203730272597 -168.86083213773315 1167.1506456241036 -146.5480631276901Q1180.0975609756101 -124.23529411764707 1180.0975609756101 -96.13773314203732Q1180.0975609756101 -68.04017216642755 1167.1506456241036 -45.589670014347206Q1154.203730272597 -23.139167862266863 1131.7532281205167 -10.605451936872312Q1109.3027259684363 1.9282639885222386 1082.307030129125 1.9282639885222386Q1055.5868005738885 1.9282639885222386 1033.136298421808 -10.605451936872312Q1010.6857962697277 -23.139167862266863 997.601147776184 -45.589670014347206Q984.5164992826402 -68.04017216642755 984.5164992826402 -96.13773314203732ZM1147.8680057388813 -96.13773314203732Q1147.8680057388813 -117.34863701578195 1139.466284074606 -133.32568149210906Q1131.0645624103304 -149.30272596843616 1116.1893830703016 -157.84218077474895Q1101.314203730273 -166.38163558106172 1082.307030129125 -166.38163558106172Q1063.2998565279772 -166.38163558106172 1048.4246771879484 -157.84218077474895Q1033.5494978479198 -149.30272596843616 1025.1477761836445 -133.32568149210906Q1016.746054519369 -117.34863701578195 1016.746054519369 -96.13773314203732Q1016.746054519369 -74.92682926829269 1025.1477761836445 -58.81205164992827Q1033.5494978479198 -42.69727403156385 1048.4246771879484 -34.020086083213776Q1063.2998565279772 -25.342898134863706 1082.307030129125 -25.342898134863706Q1101.314203730273 -25.342898134863706 1116.1893830703016 -34.020086083213776Q1131.0645624103304 -42.69727403156385 1139.466284074606 -58.81205164992827Q1147.8680057388813 -74.92682926829269 1147.8680057388813 -96.13773314203732Z M1356.6714490674321 -191.4490674318508V-165.8307030129125H1275.4088952654236V-109.36011477761838H1338.766140602583V-83.74175035868006H1275.4088952654236V0.0H1244.0057388809187V-191.4490674318508Z M1542.6111908177909 -191.4490674318508V-165.8307030129125H1491.649928263989V0.0H1460.246771879484V-165.8307030129125H1409.0100430416073V-191.4490674318508Z" transform="translate(800,466)" fill="#D08A62"/></svg>
